<svg width="16" height="16" viewBox="0 0 16 16" fill="none" xmlns="http://www.w3.org/2000/svg">
<g clip-path="url(#clip0_164_1014)">
<path d="M8 16C12.4183 16 16 12.4183 16 8C16 3.58172 12.4183 0 8 0C3.58172 0 0 3.58172 0 8C0 12.4183 3.58172 16 8 16Z" fill="#99AAB5"/>
<path d="M8 14.2222C11.4364 14.2222 14.2222 11.4364 14.2222 7.99999C14.2222 4.56356 11.4364 1.77777 8 1.77777C4.56356 1.77777 1.77778 4.56356 1.77778 7.99999C1.77778 11.4364 4.56356 14.2222 8 14.2222Z" fill="#E1E8ED"/>
<path d="M8.44445 8.00001C8.44445 8.11788 8.39762 8.23093 8.31427 8.31428C8.23092 8.39762 8.11788 8.44445 8 8.44445C7.88213 8.44445 7.76908 8.39762 7.68573 8.31428C7.60238 8.23093 7.55556 8.11788 7.55556 8.00001V3.11112C7.55556 2.99324 7.60238 2.8802 7.68573 2.79685C7.76908 2.7135 7.88213 2.66667 8 2.66667C8.11788 2.66667 8.23092 2.7135 8.31427 2.79685C8.39762 2.8802 8.44445 2.99324 8.44445 3.11112V8.00001Z" fill="#66757F"/>
<path d="M8.44445 12C8.44445 12.1179 8.39762 12.2309 8.31427 12.3143C8.23092 12.3976 8.11788 12.4444 8 12.4444C7.88213 12.4444 7.76908 12.3976 7.68573 12.3143C7.60238 12.2309 7.55556 12.1179 7.55556 12V8C7.55556 7.88213 7.60238 7.76908 7.68573 7.68573C7.76908 7.60238 7.88213 7.55556 8 7.55556C8.11788 7.55556 8.23092 7.60238 8.31427 7.68573C8.39762 7.76908 8.44445 7.88213 8.44445 8V12Z" fill="#66757F"/>
</g>
<defs>
<clipPath id="clip0_164_1014">
<rect width="16" height="16" fill="white"/>
</clipPath>
</defs>
</svg>
